# xmcd CD database file
#
# Track frame offsets:
#	150
#	27169
#	49321
#	70073
#	88043
#	111227
#	130637
#	151014
#	176738
#	197043
#
# Disc length: 2943 seconds
#
# Revision: 4
# Processed by: cddbd v1.5.1PL0 Copyright (c) Steve Scherf et al.
# Submitted via: CDex 1.51
#
DISCID=7f0b7d0a
DTITLE=L'Arc-en-Ciel - Heart [KSC2 204]
DYEAR=1998
DGENRE=Vocal
TTITLE0=Loreley
TTITLE1=Winter Fall
TTITLE2=Singin' In The Rain
TTITLE3=Shout At The Devil
TTITLE4=虹 (Album Version)
TTITLE5=Birth !
TTITLE6=Promised Land
TTITLE7=Fate
TTITLE8=Milky Way
TTITLE9=あなた
EXTD=YEAR: 1998
EXTT0=
EXTT1=
EXTT2=
EXTT3=
EXTT4=
EXTT5=
EXTT6=
EXTT7=
EXTT8=
EXTT9=
PLAYORDER=
